<svg xmlns="http://www.w3.org/2000/svg" xmlns:xlink="http://www.w3.org/1999/xlink" width="500" zoomAndPan="magnify" viewBox="0 0 375 374.999991" height="300" preserveAspectRatio="xMidYMid meet" version="1.0">
  <defs>
    <g />
  </defs>
  <g fill="#545454" fill-opacity="1">
    <g transform="translate(13.850431, 268.499978)">
      <g>
        <path d="M 24.078125 -5.71875 C 22.984375 -5.988281 21.859375 -6.289062 20.703125 -6.625 C 19.546875 -6.96875 18.425781 -7.273438 17.34375 -7.546875 C 14.894531 -8.222656 12.851562 -9.109375 11.21875 -10.203125 C 10.269531 -10.878906 9.351562 -11.625 8.46875 -12.4375 C 7.582031 -13.257812 6.664062 -14.078125 5.71875 -14.890625 C -3.9375 -23.597656 -7.679688 -34.476562 -5.515625 -47.53125 C -5.234375 -48.207031 -5.09375 -48.882812 -5.09375 -49.5625 C -5.09375 -50.25 -5.023438 -50.863281 -4.890625 -51.40625 C -4.617188 -52.5 -4.347656 -53.625 -4.078125 -54.78125 C -3.804688 -55.9375 -3.398438 -56.921875 -2.859375 -57.734375 C -0.953125 -60.722656 1.1875 -63.441406 3.5625 -65.890625 C 5.945312 -68.335938 8.835938 -70.242188 12.234375 -71.609375 C 14.410156 -72.421875 16.585938 -72.859375 18.765625 -72.921875 C 20.941406 -72.992188 23.117188 -72.488281 25.296875 -71.40625 C 27.066406 -70.445312 28.425781 -69.523438 29.375 -68.640625 C 30.320312 -67.753906 29.914062 -66.363281 28.15625 -64.46875 L 25.90625 -62.015625 C 25.363281 -61.472656 24.957031 -61.132812 24.6875 -61 C 23.863281 -60.863281 22.910156 -61.097656 21.828125 -61.703125 C 20.742188 -62.316406 19.789062 -62.691406 18.96875 -62.828125 C 16.519531 -63.234375 14.273438 -63.164062 12.234375 -62.625 C 10.054688 -62.082031 8.085938 -60.925781 6.328125 -59.15625 C 5.503906 -58.34375 4.820312 -57.425781 4.28125 -56.40625 C 3.738281 -55.382812 3.265625 -54.332031 2.859375 -53.25 C 0.273438 -46.71875 -0.0625 -40.117188 1.84375 -33.453125 C 3.738281 -27.335938 7.164062 -22.644531 12.125 -19.375 C 17.09375 -16.113281 22.707031 -14.484375 28.96875 -14.484375 C 32.5 -14.484375 35.894531 -15.0625 39.15625 -16.21875 C 42.425781 -17.375 45.554688 -18.90625 48.546875 -20.8125 C 53.304688 -23.664062 57.179688 -27.128906 60.171875 -31.203125 C 63.171875 -35.285156 65.757812 -39.640625 67.9375 -44.265625 C 69.832031 -48.078125 70.914062 -52.054688 71.1875 -56.203125 C 71.46875 -60.347656 71.0625 -64.53125 69.96875 -68.75 C 68.75 -74.320312 66.335938 -79.488281 62.734375 -84.25 C 59.128906 -89.007812 55.113281 -93.460938 50.6875 -97.609375 C 46.269531 -101.765625 42.019531 -105.742188 37.9375 -109.546875 C 37.125 -110.085938 36.71875 -110.632812 36.71875 -111.1875 C 36.582031 -111.726562 36.648438 -112.269531 36.921875 -112.8125 C 37.191406 -113.351562 37.257812 -113.894531 37.125 -114.4375 C 37.125 -114.71875 36.953125 -115.023438 36.609375 -115.359375 C 36.273438 -115.703125 36.109375 -116.007812 36.109375 -116.28125 C 36.109375 -116.550781 36.207031 -117.265625 36.40625 -118.421875 C 36.613281 -119.578125 36.785156 -120.222656 36.921875 -120.359375 L 44.0625 -126.6875 C 45.007812 -127.632812 46.097656 -128.519531 47.328125 -129.34375 C 52.359375 -132.601562 57.488281 -135.554688 62.71875 -138.203125 C 67.957031 -140.859375 73.503906 -143.003906 79.359375 -144.640625 C 81.398438 -145.316406 83.503906 -145.820312 85.671875 -146.15625 C 87.847656 -146.5 90.023438 -146.535156 92.203125 -146.265625 C 97.234375 -145.859375 101.585938 -143.816406 105.265625 -140.140625 L 105.671875 -139.734375 C 107.035156 -138.242188 107.921875 -136.375 108.328125 -134.125 C 108.734375 -131.882812 109.070312 -129.8125 109.34375 -127.90625 C 109.613281 -126.132812 109.882812 -124.363281 110.15625 -122.59375 C 110.425781 -120.832031 109.132812 -119.816406 106.28125 -119.546875 C 104.925781 -119.410156 103.941406 -119.851562 103.328125 -120.875 C 102.710938 -121.894531 102.269531 -122.945312 102 -124.03125 C 101.59375 -127.15625 101.21875 -129.972656 100.875 -132.484375 C 100.539062 -135.003906 98.601562 -136.878906 95.0625 -138.109375 C 93.15625 -138.785156 91.179688 -139.054688 89.140625 -138.921875 C 87.109375 -138.785156 85.140625 -138.515625 83.234375 -138.109375 C 79.421875 -137.566406 75.710938 -136.648438 72.109375 -135.359375 C 68.503906 -134.066406 65.070312 -132.46875 61.8125 -130.5625 C 60.445312 -129.601562 58.675781 -128.375 56.5 -126.875 C 54.332031 -125.382812 52.460938 -123.6875 50.890625 -121.78125 C 49.328125 -119.882812 48.679688 -117.914062 48.953125 -115.875 C 49.234375 -114.914062 49.644531 -113.960938 50.1875 -113.015625 C 50.726562 -112.066406 51.335938 -111.113281 52.015625 -110.15625 C 55.015625 -106.21875 58.109375 -102.515625 61.296875 -99.046875 C 64.492188 -95.578125 67.554688 -91.972656 70.484375 -88.234375 C 73.410156 -84.492188 75.753906 -80.3125 77.515625 -75.6875 C 78.472656 -73.375 79.1875 -70.992188 79.65625 -68.546875 C 80.132812 -66.097656 80.578125 -63.648438 80.984375 -61.203125 C 81.253906 -59.429688 81.351562 -57.660156 81.28125 -55.890625 C 81.21875 -54.128906 80.710938 -52.5 79.765625 -51 C 79.222656 -50.050781 78.953125 -49.03125 78.953125 -47.9375 C 78.953125 -46.851562 78.816406 -45.765625 78.546875 -44.671875 C 77.722656 -42.085938 76.5 -39.707031 74.875 -37.53125 C 73.101562 -34.675781 71.332031 -31.753906 69.5625 -28.765625 C 67.789062 -25.773438 65.476562 -23.257812 62.625 -21.21875 C 62.082031 -20.8125 61.570312 -20.367188 61.09375 -19.890625 C 60.625 -19.410156 60.179688 -18.898438 59.765625 -18.359375 C 59.222656 -17.410156 58.613281 -16.5625 57.9375 -15.8125 C 57.257812 -15.0625 56.238281 -14.753906 54.875 -14.890625 C 54.332031 -14.890625 53.925781 -14.6875 53.65625 -14.28125 C 52.695312 -13.332031 51.601562 -12.484375 50.375 -11.734375 C 49.15625 -10.984375 47.9375 -10.269531 46.71875 -9.59375 C 44.539062 -8.5 42.191406 -7.679688 39.671875 -7.140625 C 37.160156 -6.597656 34.75 -6.191406 32.4375 -5.921875 L 31.828125 -5.921875 C 30.460938 -5.785156 29.164062 -5.679688 27.9375 -5.609375 C 26.71875 -5.546875 25.429688 -5.582031 24.078125 -5.71875 Z M 24.078125 -5.71875 " />
      </g>
    </g>
  </g>
  <g fill="#545454" fill-opacity="1">
    <g transform="translate(107.690284, 268.499978)">
      <g>
        <path d="M 5.09375 -22.03125 C 4.007812 -21.351562 2.851562 -21.488281 1.625 -22.4375 C -2.988281 -26.25 -4.550781 -31.144531 -3.0625 -37.125 C -2.519531 -38.894531 -1.941406 -40.660156 -1.328125 -42.421875 C -0.710938 -44.191406 0.0664062 -45.894531 1.015625 -47.53125 C 4.554688 -53.519531 8.5 -59.128906 12.84375 -64.359375 C 17.195312 -69.597656 22.097656 -74.328125 27.546875 -78.546875 C 28.628906 -79.359375 29.78125 -80.101562 31 -80.78125 C 32.226562 -81.457031 33.457031 -82.070312 34.6875 -82.625 C 38.625 -84.382812 42.394531 -84.109375 46 -81.796875 C 49.601562 -79.492188 51.472656 -76.164062 51.609375 -71.8125 C 51.609375 -71.257812 51.609375 -70.742188 51.609375 -70.265625 C 51.609375 -69.796875 51.675781 -69.289062 51.8125 -68.75 C 52.082031 -67.382812 51.976562 -66.15625 51.5 -65.0625 C 51.03125 -63.976562 50.390625 -62.894531 49.578125 -61.8125 C 48.347656 -59.90625 47.289062 -57.96875 46.40625 -56 C 45.519531 -54.03125 44.535156 -52.09375 43.453125 -50.1875 L 36.515625 -37.125 C 36.378906 -36.582031 36.070312 -35.867188 35.59375 -34.984375 C 35.125 -34.097656 34.957031 -33.316406 35.09375 -32.640625 C 35.363281 -31.960938 35.867188 -31.960938 36.609375 -32.640625 C 37.359375 -33.316406 37.867188 -33.789062 38.140625 -34.0625 C 40.867188 -36.507812 43.691406 -38.753906 46.609375 -40.796875 C 49.535156 -42.835938 52.492188 -44.8125 55.484375 -46.71875 L 70.78125 -56.71875 C 72.28125 -57.664062 73.742188 -58.648438 75.171875 -59.671875 C 76.597656 -60.691406 78.0625 -61.609375 79.5625 -62.421875 C 80.238281 -62.828125 81.050781 -63.300781 82 -63.84375 C 82.957031 -64.394531 83.640625 -64.535156 84.046875 -64.265625 C 85.546875 -63.441406 85.953125 -62.078125 85.265625 -60.171875 C 84.585938 -58.273438 83.503906 -56.78125 82.015625 -55.6875 C 81.867188 -55.550781 80.640625 -54.632812 78.328125 -52.9375 C 76.023438 -51.238281 73.273438 -49.265625 70.078125 -47.015625 C 66.878906 -44.773438 63.75 -42.566406 60.6875 -40.390625 C 57.625 -38.210938 55.144531 -36.515625 53.25 -35.296875 C 50.800781 -33.523438 48.421875 -31.789062 46.109375 -30.09375 C 43.796875 -28.394531 41.484375 -26.726562 39.171875 -25.09375 C 37.941406 -24.132812 36.515625 -23.453125 34.890625 -23.046875 C 32.304688 -22.234375 30.46875 -23.117188 29.375 -25.703125 C 28.832031 -26.929688 28.425781 -28.019531 28.15625 -28.96875 C 27.882812 -29.914062 27.953125 -31.546875 28.359375 -33.859375 C 28.628906 -36.304688 29.238281 -38.648438 30.1875 -40.890625 C 31.144531 -43.140625 31.488281 -44.265625 31.21875 -44.265625 C 30.664062 -44.265625 29.472656 -43.445312 27.640625 -41.8125 C 25.804688 -40.1875 23.734375 -38.285156 21.421875 -36.109375 C 19.109375 -33.929688 16.863281 -31.820312 14.6875 -29.78125 C 12.507812 -27.738281 10.878906 -26.175781 9.796875 -25.09375 C 9.109375 -24.550781 8.320312 -24.039062 7.4375 -23.5625 C 6.5625 -23.082031 5.78125 -22.570312 5.09375 -22.03125 Z M 5.515625 -33.453125 C 6.328125 -33.585938 7.070312 -33.925781 7.75 -34.46875 C 8.289062 -34.613281 8.769531 -35.023438 9.1875 -35.703125 C 11.082031 -37.328125 12.945312 -38.988281 14.78125 -40.6875 C 16.625 -42.394531 18.5 -44.066406 20.40625 -45.703125 C 23.53125 -48.148438 26.414062 -50.765625 29.0625 -53.546875 C 31.71875 -56.335938 34.335938 -59.160156 36.921875 -62.015625 C 39.097656 -64.328125 41.070312 -66.707031 42.84375 -69.15625 C 43.925781 -70.65625 44.566406 -72.117188 44.765625 -73.546875 C 44.972656 -74.972656 44.671875 -76.023438 43.859375 -76.703125 C 42.640625 -77.648438 41.453125 -77.921875 40.296875 -77.515625 C 39.140625 -77.109375 38.015625 -76.566406 36.921875 -75.890625 C 34.742188 -74.523438 32.671875 -73.0625 30.703125 -71.5 C 28.734375 -69.9375 26.796875 -68.335938 24.890625 -66.703125 C 21.898438 -64.117188 19.144531 -61.195312 16.625 -57.9375 C 14.113281 -54.675781 11.703125 -51.34375 9.390625 -47.9375 C 8.023438 -46.164062 7 -44.191406 6.3125 -42.015625 C 5.632812 -39.847656 5.160156 -37.539062 4.890625 -35.09375 Z M 5.515625 -33.453125 " />
      </g>
    </g>
  </g>
  <g fill="#545454" fill-opacity="1">
    <g transform="translate(177.458178, 268.499978)">
      <g>
        <path d="M 38.5625 -94.25 C 37.332031 -92.476562 36.039062 -92.476562 34.6875 -94.25 C 33.726562 -95.332031 33.25 -96.453125 33.25 -97.609375 C 33.25 -98.765625 33.316406 -99.957031 33.453125 -101.1875 C 33.585938 -101.726562 33.753906 -102.203125 33.953125 -102.609375 C 34.160156 -103.015625 34.332031 -103.425781 34.46875 -103.84375 C 36.101562 -106.144531 37.703125 -108.519531 39.265625 -110.96875 C 40.828125 -113.414062 42.425781 -115.796875 44.0625 -118.109375 C 45.007812 -119.335938 46.234375 -120.289062 47.734375 -120.96875 C 48.960938 -121.644531 50.015625 -121.914062 50.890625 -121.78125 C 51.773438 -121.644531 52.765625 -121.101562 53.859375 -120.15625 C 56.578125 -117.707031 57.832031 -115.9375 57.625 -114.84375 C 57.425781 -113.757812 55.757812 -112.398438 52.625 -110.765625 C 49.769531 -109.410156 47.320312 -107.171875 45.28125 -104.046875 Z M 4.890625 -23.046875 C 1.765625 -22.097656 -0.75 -22.644531 -2.65625 -24.6875 C -4.5625 -26.726562 -5.679688 -29.34375 -6.015625 -32.53125 C -6.359375 -35.726562 -5.914062 -38.484375 -4.6875 -40.796875 C -2.644531 -44.609375 -0.472656 -48.382812 1.828125 -52.125 C 4.140625 -55.863281 6.59375 -59.429688 9.1875 -62.828125 C 10.132812 -64.191406 11.421875 -66.195312 13.046875 -68.84375 C 14.679688 -71.5 16.453125 -73.945312 18.359375 -76.1875 C 20.265625 -78.4375 22.101562 -79.628906 23.875 -79.765625 C 24.957031 -80.035156 26.585938 -79.929688 28.765625 -79.453125 C 30.941406 -78.984375 32.03125 -78.132812 32.03125 -76.90625 C 32.03125 -76.363281 31.210938 -75.546875 29.578125 -74.453125 C 27.941406 -73.367188 26.921875 -72.625 26.515625 -72.21875 C 24.066406 -69.769531 21.789062 -67.082031 19.6875 -64.15625 C 17.582031 -61.226562 15.578125 -58.335938 13.671875 -55.484375 C 12.578125 -53.578125 11.382812 -51.707031 10.09375 -49.875 C 8.800781 -48.039062 7.613281 -46.171875 6.53125 -44.265625 C 5.988281 -43.316406 5.476562 -42.296875 5 -41.203125 C 4.519531 -40.117188 4.144531 -39.03125 3.875 -37.9375 C 3.738281 -36.988281 3.703125 -35.898438 3.765625 -34.671875 C 3.835938 -33.453125 4.691406 -33.316406 6.328125 -34.265625 C 8.640625 -35.765625 10.953125 -37.226562 13.265625 -38.65625 C 15.578125 -40.082031 17.816406 -41.546875 19.984375 -43.046875 C 22.296875 -44.535156 25.082031 -46.332031 28.34375 -48.4375 C 31.613281 -50.550781 34.847656 -52.660156 38.046875 -54.765625 C 41.242188 -56.878906 43.929688 -58.648438 46.109375 -60.078125 C 48.285156 -61.503906 49.441406 -62.285156 49.578125 -62.421875 C 50.253906 -62.828125 51.101562 -63.300781 52.125 -63.84375 C 53.144531 -64.394531 53.859375 -64.535156 54.265625 -64.265625 C 55.765625 -63.441406 56.171875 -62.078125 55.484375 -60.171875 C 54.804688 -58.273438 53.71875 -56.78125 52.21875 -55.6875 C 51.945312 -55.550781 50.6875 -54.632812 48.4375 -52.9375 C 46.195312 -51.238281 43.445312 -49.265625 40.1875 -47.015625 C 36.925781 -44.773438 33.765625 -42.566406 30.703125 -40.390625 C 27.640625 -38.210938 25.15625 -36.515625 23.25 -35.296875 C 20.9375 -33.523438 18.585938 -31.789062 16.203125 -30.09375 C 13.828125 -28.394531 11.488281 -26.726562 9.1875 -25.09375 C 8.632812 -24.550781 7.953125 -24.140625 7.140625 -23.859375 C 6.328125 -23.585938 5.578125 -23.316406 4.890625 -23.046875 Z M 4.890625 -23.046875 " />
      </g>
    </g>
  </g>
  <g fill="#545454" fill-opacity="1">
    <g transform="translate(218.666107, 268.499978)">
      <g>
        <path d="M 37.53125 -21.015625 C 36.445312 -21.285156 35.628906 -22.097656 35.078125 -23.453125 C 34.535156 -24.816406 34.226562 -26.3125 34.15625 -27.9375 C 34.09375 -29.570312 34.269531 -30.734375 34.6875 -31.421875 C 37.8125 -37.128906 40.050781 -41.410156 41.40625 -44.265625 C 42.769531 -47.117188 43.828125 -49.363281 44.578125 -51 C 45.328125 -52.632812 46.207031 -54.398438 47.21875 -56.296875 C 48.238281 -58.203125 49.835938 -61.0625 52.015625 -64.875 C 52.566406 -65.6875 52.46875 -66.332031 51.71875 -66.8125 C 50.96875 -67.289062 49.976562 -67.320312 48.75 -66.90625 C 44.125 -63.914062 39.257812 -60.753906 34.15625 -57.421875 C 29.0625 -54.085938 24.335938 -50.722656 19.984375 -47.328125 C 18.222656 -45.960938 16.421875 -44.632812 14.578125 -43.34375 C 12.742188 -42.050781 11.082031 -40.457031 9.59375 -38.5625 C 8.226562 -36.65625 7 -34.410156 5.90625 -31.828125 C 4.820312 -29.242188 3.328125 -27.203125 1.421875 -25.703125 C -0.0664062 -24.617188 -1.628906 -24.347656 -3.265625 -24.890625 C -4.898438 -25.429688 -5.851562 -25.972656 -6.125 -26.515625 C -7.070312 -28.015625 -7.410156 -29.75 -7.140625 -31.71875 C -6.867188 -33.695312 -6.394531 -35.566406 -5.71875 -37.328125 C -4.757812 -39.367188 -3.664062 -41.34375 -2.4375 -43.25 C -1.21875 -45.15625 -0.132812 -47.054688 0.8125 -48.953125 C 2.445312 -52.222656 4.382812 -55.316406 6.625 -58.234375 C 8.875 -61.160156 11.085938 -64.117188 13.265625 -67.109375 C 15.578125 -70.109375 17.71875 -73.238281 19.6875 -76.5 C 21.65625 -79.757812 23.59375 -83.023438 25.5 -86.296875 C 26.582031 -87.378906 27.566406 -87.921875 28.453125 -87.921875 C 29.335938 -87.921875 30.460938 -87.445312 31.828125 -86.5 C 33.316406 -85.539062 33.890625 -84.210938 33.546875 -82.515625 C 33.210938 -80.816406 32.4375 -79.082031 31.21875 -77.3125 C 29.039062 -74.320312 26.929688 -71.296875 24.890625 -68.234375 C 22.847656 -65.171875 20.738281 -62.078125 18.5625 -58.953125 C 17.613281 -57.597656 17.238281 -56.75 17.4375 -56.40625 C 17.644531 -56.0625 17.75 -55.414062 17.75 -54.46875 C 18.425781 -54.46875 18.832031 -54.535156 18.96875 -54.671875 C 20.195312 -55.484375 21.421875 -56.296875 22.640625 -57.109375 C 23.867188 -57.929688 25.023438 -58.816406 26.109375 -59.765625 C 30.054688 -63.035156 34.132812 -66.03125 38.34375 -68.75 C 42.5625 -71.46875 46.78125 -74.117188 51 -76.703125 C 52.082031 -77.378906 53.335938 -78.09375 54.765625 -78.84375 C 56.203125 -79.59375 57.53125 -80.171875 58.75 -80.578125 C 60.25 -80.984375 61.914062 -81.015625 63.75 -80.671875 C 65.582031 -80.335938 67.179688 -80.035156 68.546875 -79.765625 C 68.816406 -79.628906 69.15625 -79.492188 69.5625 -79.359375 C 69.96875 -79.222656 70.238281 -78.953125 70.375 -78.546875 C 70.375 -78.265625 70.304688 -77.988281 70.171875 -77.71875 C 70.035156 -77.175781 69.832031 -76.703125 69.5625 -76.296875 C 69.289062 -75.890625 69.019531 -75.484375 68.75 -75.078125 C 67.9375 -73.847656 67.085938 -72.617188 66.203125 -71.390625 C 65.316406 -70.171875 64.535156 -68.882812 63.859375 -67.53125 C 63.304688 -66.707031 62.859375 -65.75 62.515625 -64.65625 C 62.179688 -63.570312 61.742188 -62.488281 61.203125 -61.40625 L 56.71875 -53.25 L 52.421875 -45.703125 C 52.015625 -44.742188 51.570312 -43.820312 51.09375 -42.9375 C 50.625 -42.050781 50.1875 -41.132812 49.78125 -40.1875 C 49.226562 -38.820312 49.53125 -38.207031 50.6875 -38.34375 C 51.84375 -38.488281 52.695312 -38.695312 53.25 -38.96875 C 59.769531 -42.226562 65.953125 -46.171875 71.796875 -50.796875 C 77.648438 -55.421875 83.773438 -59.429688 90.171875 -62.828125 C 90.984375 -63.234375 91.863281 -63.742188 92.8125 -64.359375 C 93.769531 -64.972656 94.453125 -65.144531 94.859375 -64.875 C 96.359375 -63.914062 96.765625 -62.484375 96.078125 -60.578125 C 95.398438 -58.679688 94.3125 -57.1875 92.8125 -56.09375 C 92.539062 -55.957031 91.285156 -55.039062 89.046875 -53.34375 C 86.804688 -51.644531 84.085938 -49.671875 80.890625 -47.421875 C 77.691406 -45.179688 74.5625 -42.972656 71.5 -40.796875 C 68.4375 -38.617188 65.957031 -36.921875 64.0625 -35.703125 C 59.707031 -32.710938 55.59375 -29.753906 51.71875 -26.828125 C 47.84375 -23.898438 43.113281 -21.960938 37.53125 -21.015625 Z M 37.53125 -21.015625 " />
      </g>
    </g>
  </g>
  <g fill="#545454" fill-opacity="1">
    <g transform="translate(298.633936, 268.499978)">
      <g>
        <path d="M 4.28125 -23.046875 C 2.507812 -22.503906 0.742188 -22.84375 -1.015625 -24.0625 C -2.785156 -25.289062 -4.210938 -26.585938 -5.296875 -27.953125 C -5.578125 -28.359375 -5.851562 -28.96875 -6.125 -29.78125 C -6.125 -30.601562 -6.054688 -31.285156 -5.921875 -31.828125 C -4.554688 -37.128906 -2.582031 -42.257812 0 -47.21875 C 2.582031 -52.1875 5.300781 -56.984375 8.15625 -61.609375 C 10.0625 -64.734375 11.96875 -67.757812 13.875 -70.6875 C 15.78125 -73.613281 17.679688 -76.570312 19.578125 -79.5625 C 19.992188 -80.238281 20.945312 -81.597656 22.4375 -83.640625 C 23.9375 -85.679688 25.398438 -87.789062 26.828125 -89.96875 C 28.253906 -92.144531 29.171875 -93.773438 29.578125 -94.859375 C 29.710938 -95.128906 29.78125 -95.535156 29.78125 -96.078125 C 29.507812 -97.035156 28.898438 -97.378906 27.953125 -97.109375 C 26.992188 -96.972656 26.175781 -96.765625 25.5 -96.484375 C 24.820312 -96.210938 24.003906 -96.007812 23.046875 -95.875 C 22.097656 -95.875 20.804688 -95.738281 19.171875 -95.46875 C 17.546875 -95.195312 16.253906 -95.195312 15.296875 -95.46875 C 13.941406 -96.007812 13.535156 -97.234375 14.078125 -99.140625 C 14.617188 -101.046875 15.640625 -102.066406 17.140625 -102.203125 C 19.035156 -102.472656 20.832031 -102.742188 22.53125 -103.015625 C 24.238281 -103.285156 25.976562 -103.488281 27.75 -103.625 C 29.507812 -103.90625 31.273438 -104.484375 33.046875 -105.359375 C 34.816406 -106.242188 36.378906 -107.164062 37.734375 -108.125 C 38.421875 -108.800781 39.035156 -109.476562 39.578125 -110.15625 C 40.117188 -110.84375 40.59375 -111.523438 41 -112.203125 C 42.363281 -114.378906 43.316406 -115.941406 43.859375 -116.890625 C 44.398438 -117.835938 44.875 -118.617188 45.28125 -119.234375 C 45.695312 -119.847656 46.175781 -120.695312 46.71875 -121.78125 C 47.394531 -123.414062 48.28125 -124.570312 49.375 -125.25 C 50.457031 -125.9375 51.539062 -125.90625 52.625 -125.15625 C 53.71875 -124.40625 54.601562 -123.691406 55.28125 -123.015625 C 56.101562 -121.921875 56.410156 -120.796875 56.203125 -119.640625 C 55.992188 -118.484375 55.550781 -117.363281 54.875 -116.28125 C 54.332031 -115.46875 53.582031 -114.484375 52.625 -113.328125 C 51.675781 -112.171875 51.132812 -111.046875 51 -109.953125 C 50.863281 -108.867188 51.679688 -107.984375 53.453125 -107.296875 C 53.992188 -107.160156 54.5 -107.09375 54.96875 -107.09375 C 55.445312 -107.09375 55.960938 -107.09375 56.515625 -107.09375 C 58.546875 -107.09375 60.582031 -106.890625 62.625 -106.484375 C 64.664062 -106.078125 66.4375 -105.195312 67.9375 -103.84375 C 68.207031 -103.5625 68.34375 -103.285156 68.34375 -103.015625 C 68.34375 -102.742188 68.273438 -102.539062 68.140625 -102.40625 L 67.53125 -101.390625 L 66.5 -99.546875 C 65.820312 -98.328125 65.078125 -97.582031 64.265625 -97.3125 C 63.992188 -97.175781 63.6875 -97.140625 63.34375 -97.203125 C 63 -97.273438 62.691406 -97.3125 62.421875 -97.3125 C 60.242188 -97.582031 58.101562 -97.75 56 -97.8125 C 53.894531 -97.882812 51.753906 -97.851562 49.578125 -97.71875 C 48.890625 -97.71875 48.207031 -97.71875 47.53125 -97.71875 C 46.851562 -97.71875 46.171875 -97.582031 45.484375 -97.3125 C 43.859375 -96.757812 42.601562 -95.90625 41.71875 -94.75 C 40.832031 -93.601562 39.847656 -92.484375 38.765625 -91.390625 C 37.671875 -90.171875 36.613281 -88.984375 35.59375 -87.828125 C 34.570312 -86.671875 33.585938 -85.410156 32.640625 -84.046875 C 31.554688 -82.410156 30.503906 -80.742188 29.484375 -79.046875 C 28.460938 -77.347656 27.40625 -75.613281 26.3125 -73.84375 C 25.363281 -72.351562 24.476562 -70.789062 23.65625 -69.15625 C 22.84375 -67.519531 21.894531 -65.957031 20.8125 -64.46875 C 18.09375 -60.25 15.78125 -55.789062 13.875 -51.09375 C 11.96875 -46.40625 9.859375 -41.816406 7.546875 -37.328125 C 7.410156 -37.191406 7.34375 -36.988281 7.34375 -36.71875 C 7.34375 -36.445312 7.476562 -36.3125 7.75 -36.3125 C 8.289062 -36.175781 8.800781 -36.207031 9.28125 -36.40625 C 9.757812 -36.613281 10.203125 -36.851562 10.609375 -37.125 C 16.722656 -41.476562 23.007812 -45.757812 29.46875 -49.96875 C 35.9375 -54.1875 42.363281 -58.269531 48.75 -62.21875 L 48.953125 -62.421875 C 49.640625 -62.828125 50.457031 -63.300781 51.40625 -63.84375 C 52.363281 -64.394531 53.046875 -64.535156 53.453125 -64.265625 C 54.941406 -63.441406 55.347656 -62.078125 54.671875 -60.171875 C 53.992188 -58.273438 52.90625 -56.78125 51.40625 -55.6875 C 51.269531 -55.550781 50.046875 -54.632812 47.734375 -52.9375 C 45.421875 -51.238281 42.664062 -49.265625 39.46875 -47.015625 C 36.28125 -44.773438 33.15625 -42.566406 30.09375 -40.390625 C 27.03125 -38.210938 24.546875 -36.515625 22.640625 -35.296875 C 20.191406 -33.523438 17.8125 -31.789062 15.5 -30.09375 C 13.1875 -28.394531 10.875 -26.726562 8.5625 -25.09375 C 7.34375 -24.132812 5.914062 -23.453125 4.28125 -23.046875 Z M 4.28125 -23.046875 " />
      </g>
    </g>
  </g>
  <g fill="#545454" fill-opacity="1">
    <g transform="translate(339.229858, 268.499978)">
      <g>
        <path d="M 10 -23.875 C 8.90625 -22.914062 7.710938 -22.742188 6.421875 -23.359375 C 5.128906 -23.972656 3.738281 -25.023438 2.25 -26.515625 C 1.425781 -27.203125 0.84375 -28.125 0.5 -29.28125 C 0.164062 -30.4375 0 -31.554688 0 -32.640625 C 0.269531 -35.492188 1.320312 -37.085938 3.15625 -37.421875 C 5 -37.765625 6.9375 -37.359375 8.96875 -36.203125 C 11.007812 -35.046875 12.375 -33.453125 13.0625 -31.421875 C 13.332031 -29.648438 13.191406 -28.21875 12.640625 -27.125 C 12.097656 -26.039062 11.21875 -24.957031 10 -23.875 Z M 10 -23.875 " />
      </g>
    </g>
  </g>
</svg>