<svg xmlns="http://www.w3.org/2000/svg" xmlns:xlink="http://www.w3.org/1999/xlink" width="500" zoomAndPan="magnify" viewBox="0 0 375 225" height="300" preserveAspectRatio="xMidYMid meet" version="1.0">
  <defs>
    <g />
  </defs>
  <g fill="#D9D9D9" fill-opacity="1">
    <g transform="translate(7.576238, 194.043913)">
      <g>
        <path d="M 24.953125 -5.921875 C 23.828125 -6.203125 22.660156 -6.519531 21.453125 -6.875 C 20.253906 -7.226562 19.09375 -7.546875 17.96875 -7.828125 C 15.4375 -8.523438 13.320312 -9.441406 11.625 -10.578125 C 10.644531 -11.273438 9.695312 -12.046875 8.78125 -12.890625 C 7.863281 -13.742188 6.910156 -14.59375 5.921875 -15.4375 C -4.085938 -24.457031 -7.960938 -35.734375 -5.703125 -49.265625 C -5.421875 -49.972656 -5.28125 -50.675781 -5.28125 -51.375 C -5.28125 -52.082031 -5.210938 -52.71875 -5.078125 -53.28125 C -4.796875 -54.40625 -4.515625 -55.566406 -4.234375 -56.765625 C -3.953125 -57.960938 -3.523438 -58.988281 -2.953125 -59.84375 C -0.984375 -62.9375 1.234375 -65.75 3.703125 -68.28125 C 6.171875 -70.820312 9.164062 -72.800781 12.6875 -74.21875 C 14.9375 -75.0625 17.1875 -75.515625 19.4375 -75.578125 C 21.695312 -75.648438 23.957031 -75.125 26.21875 -74 C 28.050781 -73.007812 29.457031 -72.054688 30.4375 -71.140625 C 31.425781 -70.234375 31.003906 -68.789062 29.171875 -66.8125 L 26.859375 -64.28125 C 26.285156 -63.71875 25.859375 -63.363281 25.578125 -63.21875 C 24.734375 -63.082031 23.75 -63.328125 22.625 -63.953125 C 21.5 -64.585938 20.507812 -64.976562 19.65625 -65.125 C 17.125 -65.539062 14.800781 -65.46875 12.6875 -64.90625 C 10.425781 -64.34375 8.378906 -63.144531 6.546875 -61.3125 C 5.703125 -60.46875 5 -59.515625 4.4375 -58.453125 C 3.875 -57.398438 3.378906 -56.3125 2.953125 -55.1875 C 0.273438 -48.414062 -0.0703125 -41.578125 1.90625 -34.671875 C 3.875 -28.328125 7.429688 -23.460938 12.578125 -20.078125 C 17.722656 -16.703125 23.539062 -15.015625 30.03125 -15.015625 C 33.6875 -15.015625 37.207031 -15.613281 40.59375 -16.8125 C 43.976562 -18.007812 47.222656 -19.59375 50.328125 -21.5625 C 55.253906 -24.519531 59.269531 -28.113281 62.375 -32.34375 C 65.476562 -36.570312 68.15625 -41.082031 70.40625 -45.875 C 72.382812 -49.820312 73.515625 -53.945312 73.796875 -58.25 C 74.078125 -62.550781 73.648438 -66.882812 72.515625 -71.25 C 71.253906 -77.03125 68.753906 -82.382812 65.015625 -87.3125 C 61.273438 -92.25 57.113281 -96.867188 52.53125 -101.171875 C 47.957031 -105.472656 43.554688 -109.597656 39.328125 -113.546875 C 38.484375 -114.109375 38.0625 -114.671875 38.0625 -115.234375 C 37.914062 -115.796875 37.984375 -116.359375 38.265625 -116.921875 C 38.546875 -117.484375 38.617188 -118.046875 38.484375 -118.609375 C 38.484375 -118.898438 38.304688 -119.21875 37.953125 -119.5625 C 37.597656 -119.914062 37.421875 -120.234375 37.421875 -120.515625 C 37.421875 -120.796875 37.523438 -121.535156 37.734375 -122.734375 C 37.953125 -123.929688 38.128906 -124.601562 38.265625 -124.75 L 45.671875 -131.296875 C 46.660156 -132.285156 47.785156 -133.203125 49.046875 -134.046875 C 54.265625 -137.429688 59.585938 -140.5 65.015625 -143.25 C 70.441406 -146 76.1875 -148.21875 82.25 -149.90625 C 84.363281 -150.613281 86.546875 -151.144531 88.796875 -151.5 C 91.054688 -151.851562 93.3125 -151.882812 95.5625 -151.59375 C 100.78125 -151.175781 105.296875 -149.0625 109.109375 -145.25 L 109.53125 -144.828125 C 110.9375 -143.285156 111.847656 -141.347656 112.265625 -139.015625 C 112.691406 -136.691406 113.046875 -134.546875 113.328125 -132.578125 C 113.609375 -130.742188 113.890625 -128.910156 114.171875 -127.078125 C 114.453125 -125.242188 113.113281 -124.1875 110.15625 -123.90625 C 108.75 -123.757812 107.726562 -124.210938 107.09375 -125.265625 C 106.457031 -126.328125 106 -127.421875 105.71875 -128.546875 C 105.289062 -131.796875 104.898438 -134.722656 104.546875 -137.328125 C 104.203125 -139.929688 102.195312 -141.867188 98.53125 -143.140625 C 96.550781 -143.847656 94.503906 -144.128906 92.390625 -143.984375 C 90.285156 -143.847656 88.242188 -143.566406 86.265625 -143.140625 C 82.316406 -142.578125 78.472656 -141.625 74.734375 -140.28125 C 71.003906 -138.945312 67.445312 -137.289062 64.0625 -135.3125 C 62.65625 -134.332031 60.820312 -133.066406 58.5625 -131.515625 C 56.3125 -129.960938 54.375 -128.195312 52.75 -126.21875 C 51.132812 -124.25 50.46875 -122.207031 50.75 -120.09375 C 51.03125 -119.101562 51.453125 -118.113281 52.015625 -117.125 C 52.578125 -116.144531 53.210938 -115.160156 53.921875 -114.171875 C 57.015625 -110.085938 60.21875 -106.25 63.53125 -102.65625 C 66.84375 -99.0625 70.015625 -95.320312 73.046875 -91.4375 C 76.078125 -87.5625 78.507812 -83.226562 80.34375 -78.4375 C 81.332031 -76.039062 82.070312 -73.570312 82.5625 -71.03125 C 83.0625 -68.5 83.519531 -65.96875 83.9375 -63.4375 C 84.21875 -61.601562 84.320312 -59.769531 84.25 -57.9375 C 84.1875 -56.101562 83.660156 -54.410156 82.671875 -52.859375 C 82.109375 -51.867188 81.828125 -50.8125 81.828125 -49.6875 C 81.828125 -48.5625 81.6875 -47.4375 81.40625 -46.3125 C 80.5625 -43.625 79.289062 -41.15625 77.59375 -38.90625 C 75.757812 -35.945312 73.925781 -32.914062 72.09375 -29.8125 C 70.257812 -26.707031 67.863281 -24.097656 64.90625 -21.984375 C 64.34375 -21.566406 63.8125 -21.109375 63.3125 -20.609375 C 62.820312 -20.117188 62.367188 -19.59375 61.953125 -19.03125 C 61.390625 -18.039062 60.753906 -17.15625 60.046875 -16.375 C 59.335938 -15.601562 58.28125 -15.289062 56.875 -15.4375 C 56.3125 -15.4375 55.890625 -15.222656 55.609375 -14.796875 C 54.617188 -13.816406 53.488281 -12.9375 52.21875 -12.15625 C 50.957031 -11.382812 49.691406 -10.644531 48.421875 -9.9375 C 46.160156 -8.8125 43.726562 -7.960938 41.125 -7.390625 C 38.519531 -6.828125 36.019531 -6.40625 33.625 -6.125 L 32.984375 -6.125 C 31.578125 -5.988281 30.238281 -5.882812 28.96875 -5.8125 C 27.695312 -5.738281 26.359375 -5.773438 24.953125 -5.921875 Z M 24.953125 -5.921875 " />
      </g>
    </g>
  </g>
  <g fill="#BFBFBF" fill-opacity="1">
    <g transform="translate(104.835038, 194.043913)">
      <g>
        <path d="M 5.28125 -22.828125 C 4.15625 -22.128906 2.957031 -22.273438 1.6875 -23.265625 C -3.101562 -27.203125 -4.722656 -32.273438 -3.171875 -38.484375 C -2.609375 -40.316406 -2.007812 -42.148438 -1.375 -43.984375 C -0.738281 -45.816406 0.0703125 -47.578125 1.0625 -49.265625 C 4.71875 -55.460938 8.800781 -61.273438 13.3125 -66.703125 C 17.832031 -72.128906 22.910156 -77.03125 28.546875 -81.40625 C 29.671875 -82.25 30.867188 -83.019531 32.140625 -83.71875 C 33.410156 -84.425781 34.675781 -85.0625 35.9375 -85.625 C 40.03125 -87.457031 43.941406 -87.175781 47.671875 -84.78125 C 51.410156 -82.382812 53.351562 -78.929688 53.5 -74.421875 C 53.5 -73.859375 53.5 -73.328125 53.5 -72.828125 C 53.5 -72.335938 53.566406 -71.8125 53.703125 -71.25 C 53.984375 -69.84375 53.875 -68.570312 53.375 -67.4375 C 52.882812 -66.3125 52.21875 -65.1875 51.375 -64.0625 C 50.101562 -62.09375 49.007812 -60.082031 48.09375 -58.03125 C 47.1875 -55.988281 46.164062 -53.984375 45.03125 -52.015625 L 37.84375 -38.484375 C 37.707031 -37.921875 37.390625 -37.179688 36.890625 -36.265625 C 36.398438 -35.347656 36.226562 -34.535156 36.375 -33.828125 C 36.65625 -33.117188 37.179688 -33.117188 37.953125 -33.828125 C 38.722656 -34.535156 39.25 -35.03125 39.53125 -35.3125 C 42.351562 -37.84375 45.28125 -40.164062 48.3125 -42.28125 C 51.34375 -44.394531 54.410156 -46.441406 57.515625 -48.421875 L 73.375 -58.78125 C 74.914062 -59.769531 76.425781 -60.789062 77.90625 -61.84375 C 79.394531 -62.90625 80.910156 -63.859375 82.453125 -64.703125 C 83.160156 -65.117188 84.007812 -65.609375 85 -66.171875 C 85.988281 -66.742188 86.691406 -66.890625 87.109375 -66.609375 C 88.660156 -65.753906 89.082031 -64.335938 88.375 -62.359375 C 87.675781 -60.390625 86.550781 -58.84375 85 -57.71875 C 84.851562 -57.582031 83.582031 -56.628906 81.1875 -54.859375 C 78.789062 -53.097656 75.9375 -51.054688 72.625 -48.734375 C 69.3125 -46.410156 66.066406 -44.117188 62.890625 -41.859375 C 59.722656 -39.609375 57.15625 -37.847656 55.1875 -36.578125 C 52.644531 -34.742188 50.175781 -32.945312 47.78125 -31.1875 C 45.382812 -29.425781 42.988281 -27.695312 40.59375 -26 C 39.320312 -25.019531 37.84375 -24.316406 36.15625 -23.890625 C 33.476562 -23.046875 31.578125 -23.960938 30.453125 -26.640625 C 29.878906 -27.910156 29.453125 -29.035156 29.171875 -30.015625 C 28.890625 -31.003906 28.960938 -32.695312 29.390625 -35.09375 C 29.671875 -37.632812 30.300781 -40.066406 31.28125 -42.390625 C 32.269531 -44.710938 32.625 -45.875 32.34375 -45.875 C 31.78125 -45.875 30.546875 -45.03125 28.640625 -43.34375 C 26.742188 -41.65625 24.597656 -39.679688 22.203125 -37.421875 C 19.804688 -35.171875 17.476562 -32.988281 15.21875 -30.875 C 12.96875 -28.757812 11.28125 -27.132812 10.15625 -26 C 9.445312 -25.4375 8.632812 -24.910156 7.71875 -24.421875 C 6.800781 -23.929688 5.988281 -23.398438 5.28125 -22.828125 Z M 5.703125 -34.671875 C 6.554688 -34.816406 7.332031 -35.171875 8.03125 -35.734375 C 8.59375 -35.867188 9.085938 -36.289062 9.515625 -37 C 11.484375 -38.6875 13.421875 -40.410156 15.328125 -42.171875 C 17.234375 -43.941406 19.171875 -45.671875 21.140625 -47.359375 C 24.378906 -49.898438 27.375 -52.613281 30.125 -55.5 C 32.875 -58.394531 35.585938 -61.320312 38.265625 -64.28125 C 40.523438 -66.675781 42.570312 -69.140625 44.40625 -71.671875 C 45.53125 -73.222656 46.195312 -74.738281 46.40625 -76.21875 C 46.625 -77.695312 46.304688 -78.789062 45.453125 -79.5 C 44.191406 -80.488281 42.960938 -80.769531 41.765625 -80.34375 C 40.566406 -79.925781 39.398438 -79.363281 38.265625 -78.65625 C 36.015625 -77.25 33.863281 -75.734375 31.8125 -74.109375 C 29.769531 -72.484375 27.765625 -70.828125 25.796875 -69.140625 C 22.691406 -66.460938 19.835938 -63.429688 17.234375 -60.046875 C 14.628906 -56.660156 12.125 -53.207031 9.71875 -49.6875 C 8.3125 -47.851562 7.253906 -45.804688 6.546875 -43.546875 C 5.847656 -41.296875 5.359375 -38.90625 5.078125 -36.375 Z M 5.703125 -34.671875 " />
      </g>
    </g>
  </g>
  <g fill="#A5A5A5" fill-opacity="1">
    <g transform="translate(177.144849, 194.043913)">
      <g>
        <path d="M 39.96875 -97.6875 C 38.695312 -95.851562 37.351562 -95.851562 35.9375 -97.6875 C 34.957031 -98.8125 34.46875 -99.972656 34.46875 -101.171875 C 34.46875 -102.367188 34.535156 -103.601562 34.671875 -104.875 C 34.816406 -105.4375 34.992188 -105.925781 35.203125 -106.34375 C 35.410156 -106.769531 35.585938 -107.195312 35.734375 -107.625 C 37.421875 -110.019531 39.078125 -112.484375 40.703125 -115.015625 C 42.328125 -117.554688 43.984375 -120.023438 45.671875 -122.421875 C 46.660156 -123.691406 47.925781 -124.675781 49.46875 -125.375 C 50.738281 -126.082031 51.832031 -126.363281 52.75 -126.21875 C 53.664062 -126.082031 54.6875 -125.519531 55.8125 -124.53125 C 58.632812 -122 59.9375 -120.164062 59.71875 -119.03125 C 59.507812 -117.90625 57.785156 -116.5 54.546875 -114.8125 C 51.585938 -113.40625 49.050781 -111.078125 46.9375 -107.828125 Z M 5.078125 -23.890625 C 1.835938 -22.898438 -0.765625 -23.460938 -2.734375 -25.578125 C -4.710938 -27.691406 -5.878906 -30.40625 -6.234375 -33.71875 C -6.585938 -37.03125 -6.128906 -39.882812 -4.859375 -42.28125 C -2.742188 -46.226562 -0.488281 -50.140625 1.90625 -54.015625 C 4.300781 -57.898438 6.835938 -61.601562 9.515625 -65.125 C 10.503906 -66.53125 11.84375 -68.609375 13.53125 -71.359375 C 15.21875 -74.109375 17.046875 -76.644531 19.015625 -78.96875 C 20.992188 -81.289062 22.898438 -82.523438 24.734375 -82.671875 C 25.859375 -82.953125 27.550781 -82.84375 29.8125 -82.34375 C 32.070312 -81.851562 33.203125 -80.976562 33.203125 -79.71875 C 33.203125 -79.144531 32.351562 -78.296875 30.65625 -77.171875 C 28.96875 -76.046875 27.910156 -75.269531 27.484375 -74.84375 C 24.953125 -72.3125 22.59375 -69.53125 20.40625 -66.5 C 18.21875 -63.46875 16.140625 -60.472656 14.171875 -57.515625 C 13.035156 -55.535156 11.796875 -53.59375 10.453125 -51.6875 C 9.117188 -49.789062 7.890625 -47.851562 6.765625 -45.875 C 6.203125 -44.894531 5.671875 -43.835938 5.171875 -42.703125 C 4.679688 -41.578125 4.296875 -40.453125 4.015625 -39.328125 C 3.878906 -38.335938 3.84375 -37.207031 3.90625 -35.9375 C 3.976562 -34.675781 4.859375 -34.535156 6.546875 -35.515625 C 8.953125 -37.066406 11.351562 -38.582031 13.75 -40.0625 C 16.144531 -41.539062 18.46875 -43.054688 20.71875 -44.609375 C 23.113281 -46.160156 26.003906 -48.03125 29.390625 -50.21875 C 32.773438 -52.40625 36.125 -54.585938 39.4375 -56.765625 C 42.75 -58.953125 45.53125 -60.785156 47.78125 -62.265625 C 50.039062 -63.742188 51.238281 -64.554688 51.375 -64.703125 C 52.082031 -65.117188 52.960938 -65.609375 54.015625 -66.171875 C 55.078125 -66.742188 55.820312 -66.890625 56.25 -66.609375 C 57.789062 -65.753906 58.207031 -64.335938 57.5 -62.359375 C 56.800781 -60.390625 55.675781 -58.84375 54.125 -57.71875 C 53.84375 -57.582031 52.539062 -56.628906 50.21875 -54.859375 C 47.894531 -53.097656 45.039062 -51.054688 41.65625 -48.734375 C 38.269531 -46.410156 34.988281 -44.117188 31.8125 -41.859375 C 28.644531 -39.609375 26.078125 -37.847656 24.109375 -36.578125 C 21.710938 -34.742188 19.28125 -32.945312 16.8125 -31.1875 C 14.34375 -29.425781 11.910156 -27.695312 9.515625 -26 C 8.953125 -25.4375 8.242188 -25.015625 7.390625 -24.734375 C 6.546875 -24.453125 5.773438 -24.171875 5.078125 -23.890625 Z M 5.078125 -23.890625 " />
      </g>
    </g>
  </g>
  <g fill="#8B8B8B" fill-opacity="1">
    <g transform="translate(219.854153, 194.043913)">
      <g>
        <path d="M 38.90625 -21.78125 C 37.78125 -22.0625 36.929688 -22.90625 36.359375 -24.3125 C 35.796875 -25.71875 35.476562 -27.265625 35.40625 -28.953125 C 35.34375 -30.648438 35.519531 -31.851562 35.9375 -32.5625 C 39.1875 -38.476562 41.515625 -42.914062 42.921875 -45.875 C 44.328125 -48.84375 45.414062 -51.171875 46.1875 -52.859375 C 46.96875 -54.546875 47.882812 -56.375 48.9375 -58.34375 C 50 -60.320312 51.660156 -63.285156 53.921875 -67.234375 C 54.484375 -68.078125 54.375 -68.742188 53.59375 -69.234375 C 52.820312 -69.734375 51.800781 -69.769531 50.53125 -69.34375 C 45.738281 -66.25 40.695312 -62.972656 35.40625 -59.515625 C 30.125 -56.066406 25.226562 -52.578125 20.71875 -49.046875 C 18.882812 -47.640625 17.015625 -46.265625 15.109375 -44.921875 C 13.210938 -43.585938 11.488281 -41.9375 9.9375 -39.96875 C 8.53125 -37.988281 7.257812 -35.660156 6.125 -32.984375 C 5 -30.304688 3.453125 -28.191406 1.484375 -26.640625 C -0.0664062 -25.515625 -1.6875 -25.234375 -3.375 -25.796875 C -5.070312 -26.359375 -6.0625 -26.921875 -6.34375 -27.484375 C -7.332031 -29.035156 -7.6875 -30.832031 -7.40625 -32.875 C -7.125 -34.914062 -6.628906 -36.851562 -5.921875 -38.6875 C -4.929688 -40.800781 -3.800781 -42.84375 -2.53125 -44.8125 C -1.269531 -46.789062 -0.144531 -48.769531 0.84375 -50.75 C 2.539062 -54.125 4.550781 -57.328125 6.875 -60.359375 C 9.195312 -63.390625 11.488281 -66.457031 13.75 -69.5625 C 16.144531 -72.664062 18.363281 -75.90625 20.40625 -79.28125 C 22.445312 -82.664062 24.453125 -86.050781 26.421875 -89.4375 C 27.554688 -90.5625 28.582031 -91.125 29.5 -91.125 C 30.414062 -91.125 31.578125 -90.632812 32.984375 -89.65625 C 34.535156 -88.664062 35.132812 -87.289062 34.78125 -85.53125 C 34.425781 -83.769531 33.613281 -81.972656 32.34375 -80.140625 C 30.09375 -77.035156 27.910156 -73.894531 25.796875 -70.71875 C 23.679688 -67.550781 21.492188 -64.347656 19.234375 -61.109375 C 18.253906 -59.691406 17.867188 -58.804688 18.078125 -58.453125 C 18.285156 -58.109375 18.390625 -57.441406 18.390625 -56.453125 C 19.097656 -56.453125 19.519531 -56.523438 19.65625 -56.671875 C 20.925781 -57.515625 22.195312 -58.359375 23.46875 -59.203125 C 24.738281 -60.046875 25.9375 -60.960938 27.0625 -61.953125 C 31.15625 -65.335938 35.382812 -68.4375 39.75 -71.25 C 44.125 -74.070312 48.492188 -76.820312 52.859375 -79.5 C 53.984375 -80.207031 55.285156 -80.945312 56.765625 -81.71875 C 58.242188 -82.5 59.617188 -83.097656 60.890625 -83.515625 C 62.441406 -83.941406 64.164062 -83.976562 66.0625 -83.625 C 67.96875 -83.269531 69.628906 -82.953125 71.046875 -82.671875 C 71.328125 -82.523438 71.675781 -82.378906 72.09375 -82.234375 C 72.519531 -82.097656 72.804688 -81.820312 72.953125 -81.40625 C 72.953125 -81.125 72.878906 -80.84375 72.734375 -80.5625 C 72.585938 -80 72.375 -79.503906 72.09375 -79.078125 C 71.8125 -78.648438 71.53125 -78.226562 71.25 -77.8125 C 70.40625 -76.539062 69.523438 -75.269531 68.609375 -74 C 67.691406 -72.726562 66.882812 -71.390625 66.1875 -69.984375 C 65.613281 -69.140625 65.148438 -68.148438 64.796875 -67.015625 C 64.453125 -65.890625 64 -64.765625 63.4375 -63.640625 L 58.78125 -55.1875 L 54.34375 -47.359375 C 53.914062 -46.367188 53.453125 -45.414062 52.953125 -44.5 C 52.460938 -43.59375 52.007812 -42.644531 51.59375 -41.65625 C 51.03125 -40.238281 51.347656 -39.601562 52.546875 -39.75 C 53.742188 -39.894531 54.625 -40.109375 55.1875 -40.390625 C 61.945312 -43.765625 68.359375 -47.847656 74.421875 -52.640625 C 80.484375 -57.441406 86.828125 -61.601562 93.453125 -65.125 C 94.296875 -65.539062 95.210938 -66.066406 96.203125 -66.703125 C 97.191406 -67.335938 97.894531 -67.515625 98.3125 -67.234375 C 99.863281 -66.242188 100.285156 -64.765625 99.578125 -62.796875 C 98.878906 -60.828125 97.753906 -59.273438 96.203125 -58.140625 C 95.921875 -58.003906 94.613281 -57.050781 92.28125 -55.28125 C 89.957031 -53.519531 87.140625 -51.476562 83.828125 -49.15625 C 80.515625 -46.832031 77.269531 -44.539062 74.09375 -42.28125 C 70.925781 -40.03125 68.359375 -38.269531 66.390625 -37 C 61.878906 -33.894531 57.613281 -30.828125 53.59375 -27.796875 C 49.582031 -24.773438 44.6875 -22.769531 38.90625 -21.78125 Z M 38.90625 -21.78125 " />
      </g>
    </g>
  </g>
  <g fill="#8B8B8B" fill-opacity="1">
    <g transform="translate(302.735512, 194.043913)">
      <g>
        <path d="M 4.4375 -23.890625 C 2.601562 -23.328125 0.769531 -23.679688 -1.0625 -24.953125 C -2.894531 -26.222656 -4.375 -27.5625 -5.5 -28.96875 C -5.78125 -29.382812 -6.0625 -30.019531 -6.34375 -30.875 C -6.34375 -31.71875 -6.269531 -32.421875 -6.125 -32.984375 C -4.71875 -38.484375 -2.675781 -43.804688 0 -48.953125 C 2.675781 -54.097656 5.492188 -59.066406 8.453125 -63.859375 C 10.429688 -67.097656 12.40625 -70.234375 14.375 -73.265625 C 16.351562 -76.296875 18.328125 -79.359375 20.296875 -82.453125 C 20.722656 -83.160156 21.707031 -84.570312 23.25 -86.6875 C 24.800781 -88.800781 26.316406 -90.984375 27.796875 -93.234375 C 29.285156 -95.492188 30.238281 -97.1875 30.65625 -98.3125 C 30.800781 -98.59375 30.875 -99.019531 30.875 -99.59375 C 30.59375 -100.570312 29.957031 -100.921875 28.96875 -100.640625 C 27.976562 -100.503906 27.128906 -100.296875 26.421875 -100.015625 C 25.722656 -99.734375 24.878906 -99.519531 23.890625 -99.375 C 22.898438 -99.375 21.5625 -99.234375 19.875 -98.953125 C 18.1875 -98.671875 16.847656 -98.671875 15.859375 -98.953125 C 14.453125 -99.515625 14.03125 -100.78125 14.59375 -102.75 C 15.15625 -104.726562 16.210938 -105.789062 17.765625 -105.9375 C 19.734375 -106.21875 21.597656 -106.5 23.359375 -106.78125 C 25.117188 -107.0625 26.914062 -107.269531 28.75 -107.40625 C 30.582031 -107.6875 32.414062 -108.285156 34.25 -109.203125 C 36.082031 -110.117188 37.703125 -111.070312 39.109375 -112.0625 C 39.816406 -112.769531 40.453125 -113.472656 41.015625 -114.171875 C 41.578125 -114.878906 42.070312 -115.585938 42.5 -116.296875 C 43.90625 -118.546875 44.890625 -120.164062 45.453125 -121.15625 C 46.023438 -122.144531 46.519531 -122.953125 46.9375 -123.578125 C 47.363281 -124.210938 47.859375 -125.097656 48.421875 -126.234375 C 49.117188 -127.921875 50.035156 -129.117188 51.171875 -129.828125 C 52.296875 -130.523438 53.421875 -130.484375 54.546875 -129.703125 C 55.679688 -128.929688 56.597656 -128.195312 57.296875 -127.5 C 58.140625 -126.375 58.457031 -125.207031 58.25 -124 C 58.039062 -122.800781 57.582031 -121.640625 56.875 -120.515625 C 56.3125 -119.671875 55.535156 -118.648438 54.546875 -117.453125 C 53.566406 -116.253906 53.003906 -115.085938 52.859375 -113.953125 C 52.710938 -112.828125 53.554688 -111.914062 55.390625 -111.21875 C 55.960938 -111.070312 56.492188 -111 56.984375 -111 C 57.472656 -111 58 -111 58.5625 -111 C 60.675781 -111 62.789062 -110.785156 64.90625 -110.359375 C 67.019531 -109.941406 68.851562 -109.03125 70.40625 -107.625 C 70.6875 -107.34375 70.828125 -107.0625 70.828125 -106.78125 C 70.828125 -106.5 70.757812 -106.285156 70.625 -106.140625 L 69.984375 -105.078125 L 68.921875 -103.1875 C 68.222656 -101.914062 67.453125 -101.140625 66.609375 -100.859375 C 66.328125 -100.710938 66.007812 -100.675781 65.65625 -100.75 C 65.300781 -100.820312 64.984375 -100.859375 64.703125 -100.859375 C 62.441406 -101.140625 60.21875 -101.3125 58.03125 -101.375 C 55.851562 -101.445312 53.632812 -101.414062 51.375 -101.28125 C 50.675781 -101.28125 49.972656 -101.28125 49.265625 -101.28125 C 48.554688 -101.28125 47.851562 -101.140625 47.15625 -100.859375 C 45.457031 -100.296875 44.148438 -99.414062 43.234375 -98.21875 C 42.316406 -97.019531 41.296875 -95.851562 40.171875 -94.71875 C 39.046875 -93.457031 37.953125 -92.226562 36.890625 -91.03125 C 35.835938 -89.832031 34.816406 -88.523438 33.828125 -87.109375 C 32.703125 -85.421875 31.609375 -83.691406 30.546875 -81.921875 C 29.492188 -80.160156 28.40625 -78.367188 27.28125 -76.546875 C 26.289062 -74.992188 25.375 -73.367188 24.53125 -71.671875 C 23.6875 -69.984375 22.695312 -68.363281 21.5625 -66.8125 C 18.75 -62.445312 16.351562 -57.832031 14.375 -52.96875 C 12.40625 -48.101562 10.222656 -43.34375 7.828125 -38.6875 C 7.679688 -38.550781 7.609375 -38.34375 7.609375 -38.0625 C 7.609375 -37.78125 7.75 -37.640625 8.03125 -37.640625 C 8.59375 -37.492188 9.117188 -37.523438 9.609375 -37.734375 C 10.109375 -37.953125 10.570312 -38.203125 11 -38.484375 C 17.34375 -42.992188 23.859375 -47.429688 30.546875 -51.796875 C 37.242188 -56.171875 43.90625 -60.398438 50.53125 -64.484375 L 50.75 -64.703125 C 51.445312 -65.117188 52.289062 -65.609375 53.28125 -66.171875 C 54.269531 -66.742188 54.972656 -66.890625 55.390625 -66.609375 C 56.941406 -65.753906 57.363281 -64.335938 56.65625 -62.359375 C 55.957031 -60.390625 54.832031 -58.84375 53.28125 -57.71875 C 53.144531 -57.582031 51.875 -56.628906 49.46875 -54.859375 C 47.070312 -53.097656 44.21875 -51.054688 40.90625 -48.734375 C 37.59375 -46.410156 34.347656 -44.117188 31.171875 -41.859375 C 28.003906 -39.609375 25.4375 -37.847656 23.46875 -36.578125 C 20.925781 -34.742188 18.457031 -32.945312 16.0625 -31.1875 C 13.664062 -29.425781 11.269531 -27.695312 8.875 -26 C 7.613281 -25.019531 6.132812 -24.316406 4.4375 -23.890625 Z M 4.4375 -23.890625 " />
      </g>
    </g>
  </g>
  <g fill="#8B8B8B" fill-opacity="1">
    <g transform="translate(359.229858, 194.043913)">
      <g>
        <path d="M 10 -23.875 C 8.90625 -22.914062 7.710938 -22.742188 6.421875 -23.359375 C 5.128906 -23.972656 3.738281 -25.023438 2.25 -26.515625 C 1.425781 -27.203125 0.84375 -28.125 0.5 -29.28125 C 0.164062 -30.4375 0 -31.554688 0 -32.640625 C 0.269531 -35.492188 1.320312 -37.085938 3.15625 -37.421875 C 5 -37.765625 6.9375 -37.359375 8.96875 -36.203125 C 11.007812 -35.046875 12.375 -33.453125 13.0625 -31.421875 C 13.332031 -29.648438 13.191406 -28.21875 12.640625 -27.125 C 12.097656 -26.039062 11.21875 -24.957031 10 -23.875 Z M 10 -23.875 " />
      </g>
    </g>
  </g>
</svg>