<svg xmlns="http://www.w3.org/2000/svg" xmlns:xlink="http://www.w3.org/1999/xlink" width="800" zoomAndPan="magnify" viewBox="0 0 375  214" height="100" preserveAspectRatio="xMidYMid meet" version="1.0">
  <defs>
    <g />
  </defs>
  <g fill="#545454" fill-opacity="1">
    <g transform="translate(21.670582, 258.904433)">
      <g>
        <path d="M 23.46875 -5.5625 C 22.40625 -5.832031 21.3125 -6.128906 20.1875 -6.453125 C 19.0625 -6.785156 17.96875 -7.085938 16.90625 -7.359375 C 14.519531 -8.015625 12.53125 -8.875 10.9375 -9.9375 C 10.007812 -10.601562 9.113281 -11.332031 8.25 -12.125 C 7.382812 -12.925781 6.488281 -13.722656 5.5625 -14.515625 C -3.84375 -22.992188 -7.488281 -33.597656 -5.375 -46.328125 C -5.101562 -46.992188 -4.96875 -47.65625 -4.96875 -48.3125 C -4.96875 -48.976562 -4.898438 -49.578125 -4.765625 -50.109375 C -4.503906 -51.171875 -4.238281 -52.265625 -3.96875 -53.390625 C -3.707031 -54.515625 -3.3125 -55.472656 -2.78125 -56.265625 C -0.925781 -59.179688 1.15625 -61.832031 3.46875 -64.21875 C 5.789062 -66.613281 8.613281 -68.472656 11.9375 -69.796875 C 14.050781 -70.585938 16.164062 -71.015625 18.28125 -71.078125 C 20.40625 -71.148438 22.53125 -70.65625 24.65625 -69.59375 C 26.375 -68.664062 27.695312 -67.769531 28.625 -66.90625 C 29.5625 -66.050781 29.164062 -64.691406 27.4375 -62.828125 L 25.25 -60.453125 C 24.71875 -59.921875 24.320312 -59.585938 24.0625 -59.453125 C 23.257812 -59.316406 22.328125 -59.546875 21.265625 -60.140625 C 20.210938 -60.742188 19.289062 -61.113281 18.5 -61.25 C 16.101562 -61.644531 13.914062 -61.578125 11.9375 -61.046875 C 9.8125 -60.515625 7.890625 -59.390625 6.171875 -57.671875 C 5.367188 -56.867188 4.703125 -55.96875 4.171875 -54.96875 C 3.640625 -53.976562 3.175781 -52.953125 2.78125 -51.890625 C 0.257812 -45.535156 -0.0664062 -39.109375 1.796875 -32.609375 C 3.648438 -26.640625 6.992188 -22.066406 11.828125 -18.890625 C 16.671875 -15.710938 22.140625 -14.125 28.234375 -14.125 C 31.679688 -14.125 34.992188 -14.6875 38.171875 -15.8125 C 41.359375 -16.9375 44.410156 -18.425781 47.328125 -20.28125 C 51.960938 -23.0625 55.738281 -26.441406 58.65625 -30.421875 C 61.570312 -34.398438 64.09375 -38.644531 66.21875 -43.15625 C 68.070312 -46.863281 69.128906 -50.738281 69.390625 -54.78125 C 69.660156 -58.820312 69.265625 -62.898438 68.203125 -67.015625 C 67.003906 -72.441406 64.648438 -77.472656 61.140625 -82.109375 C 57.628906 -86.753906 53.71875 -91.097656 49.40625 -95.140625 C 45.101562 -99.191406 40.960938 -103.070312 36.984375 -106.78125 C 36.191406 -107.3125 35.796875 -107.84375 35.796875 -108.375 C 35.660156 -108.90625 35.722656 -109.429688 35.984375 -109.953125 C 36.253906 -110.484375 36.320312 -111.015625 36.1875 -111.546875 C 36.1875 -111.816406 36.019531 -112.113281 35.6875 -112.4375 C 35.363281 -112.769531 35.203125 -113.070312 35.203125 -113.34375 C 35.203125 -113.601562 35.300781 -114.296875 35.5 -115.421875 C 35.695312 -116.554688 35.859375 -117.1875 35.984375 -117.3125 L 42.953125 -123.484375 C 43.878906 -124.410156 44.9375 -125.269531 46.125 -126.0625 C 51.03125 -129.25 56.035156 -132.132812 61.140625 -134.71875 C 66.242188 -137.300781 71.644531 -139.390625 77.34375 -140.984375 C 79.332031 -141.640625 81.390625 -142.132812 83.515625 -142.46875 C 85.640625 -142.800781 87.757812 -142.835938 89.875 -142.578125 C 94.78125 -142.171875 99.023438 -140.179688 102.609375 -136.609375 L 103 -136.203125 C 104.320312 -134.742188 105.179688 -132.921875 105.578125 -130.734375 C 105.984375 -128.546875 106.316406 -126.523438 106.578125 -124.671875 C 106.847656 -122.953125 107.113281 -121.226562 107.375 -119.5 C 107.632812 -117.78125 106.375 -116.785156 103.59375 -116.515625 C 102.269531 -116.390625 101.304688 -116.820312 100.703125 -117.8125 C 100.109375 -118.8125 99.679688 -119.835938 99.421875 -120.890625 C 99.023438 -123.941406 98.660156 -126.691406 98.328125 -129.140625 C 97.992188 -131.597656 96.101562 -133.425781 92.65625 -134.625 C 90.800781 -135.28125 88.878906 -135.539062 86.890625 -135.40625 C 84.898438 -135.28125 82.976562 -135.019531 81.125 -134.625 C 77.414062 -134.09375 73.800781 -133.195312 70.28125 -131.9375 C 66.769531 -130.675781 63.425781 -129.117188 60.25 -127.265625 C 58.925781 -126.335938 57.203125 -125.144531 55.078125 -123.6875 C 52.953125 -122.226562 51.128906 -120.566406 49.609375 -118.703125 C 48.085938 -116.847656 47.457031 -114.925781 47.71875 -112.9375 C 47.988281 -112.007812 48.382812 -111.082031 48.90625 -110.15625 C 49.4375 -109.226562 50.035156 -108.300781 50.703125 -107.375 C 53.617188 -103.53125 56.632812 -99.914062 59.75 -96.53125 C 62.863281 -93.15625 65.84375 -89.644531 68.6875 -86 C 71.539062 -82.351562 73.832031 -78.273438 75.5625 -73.765625 C 76.488281 -71.515625 77.179688 -69.195312 77.640625 -66.8125 C 78.109375 -64.425781 78.539062 -62.039062 78.9375 -59.65625 C 79.207031 -57.925781 79.304688 -56.195312 79.234375 -54.46875 C 79.171875 -52.75 78.675781 -51.160156 77.75 -49.703125 C 77.21875 -48.773438 76.953125 -47.78125 76.953125 -46.71875 C 76.953125 -45.664062 76.820312 -44.609375 76.5625 -43.546875 C 75.757812 -41.023438 74.5625 -38.707031 72.96875 -36.59375 C 71.25 -33.800781 69.523438 -30.945312 67.796875 -28.03125 C 66.078125 -25.113281 63.828125 -22.664062 61.046875 -20.6875 C 60.515625 -20.28125 60.015625 -19.84375 59.546875 -19.375 C 59.085938 -18.914062 58.660156 -18.421875 58.265625 -17.890625 C 57.734375 -16.960938 57.132812 -16.132812 56.46875 -15.40625 C 55.8125 -14.675781 54.816406 -14.378906 53.484375 -14.515625 C 52.953125 -14.515625 52.554688 -14.316406 52.296875 -13.921875 C 51.367188 -12.992188 50.304688 -12.164062 49.109375 -11.4375 C 47.921875 -10.707031 46.726562 -10.007812 45.53125 -9.34375 C 43.414062 -8.28125 41.128906 -7.484375 38.671875 -6.953125 C 36.222656 -6.429688 33.867188 -6.035156 31.609375 -5.765625 L 31.015625 -5.765625 C 29.691406 -5.628906 28.429688 -5.53125 27.234375 -5.46875 C 26.046875 -5.40625 24.789062 -5.4375 23.46875 -5.5625 Z M 23.46875 -5.5625 " />
      </g>
    </g>
  </g>
  <g fill="#545454" fill-opacity="1">
    <g transform="translate(113.137734, 258.904433)">
      <g>
        <path d="M 4.96875 -21.46875 C 3.90625 -20.8125 2.78125 -20.945312 1.59375 -21.875 C -2.914062 -25.582031 -4.441406 -30.351562 -2.984375 -36.1875 C -2.453125 -37.914062 -1.882812 -39.640625 -1.28125 -41.359375 C -0.6875 -43.078125 0.0703125 -44.734375 1 -46.328125 C 4.445312 -52.160156 8.289062 -57.628906 12.53125 -62.734375 C 16.769531 -67.835938 21.539062 -72.445312 26.84375 -76.5625 C 27.90625 -77.351562 29.03125 -78.078125 30.21875 -78.734375 C 31.414062 -79.398438 32.609375 -80 33.796875 -80.53125 C 37.640625 -82.25 41.316406 -81.984375 44.828125 -79.734375 C 48.347656 -77.484375 50.175781 -74.238281 50.3125 -70 C 50.3125 -69.46875 50.3125 -68.96875 50.3125 -68.5 C 50.3125 -68.039062 50.375 -67.546875 50.5 -67.015625 C 50.769531 -65.679688 50.671875 -64.484375 50.203125 -63.421875 C 49.742188 -62.367188 49.113281 -61.3125 48.3125 -60.25 C 47.125 -58.394531 46.097656 -56.503906 45.234375 -54.578125 C 44.367188 -52.660156 43.410156 -50.773438 42.359375 -48.921875 L 35.59375 -36.1875 C 35.457031 -35.65625 35.15625 -34.957031 34.6875 -34.09375 C 34.226562 -33.238281 34.066406 -32.476562 34.203125 -31.8125 C 34.460938 -31.15625 34.957031 -31.15625 35.6875 -31.8125 C 36.414062 -32.476562 36.914062 -32.941406 37.1875 -33.203125 C 39.832031 -35.585938 42.578125 -37.773438 45.421875 -39.765625 C 48.273438 -41.753906 51.160156 -43.675781 54.078125 -45.53125 L 69 -55.28125 C 70.457031 -56.207031 71.878906 -57.164062 73.265625 -58.15625 C 74.660156 -59.15625 76.085938 -60.050781 77.546875 -60.84375 C 78.210938 -61.238281 79.007812 -61.703125 79.9375 -62.234375 C 80.863281 -62.765625 81.523438 -62.898438 81.921875 -62.640625 C 83.378906 -61.835938 83.773438 -60.507812 83.109375 -58.65625 C 82.453125 -56.800781 81.394531 -55.34375 79.9375 -54.28125 C 79.800781 -54.144531 78.601562 -53.25 76.34375 -51.59375 C 74.09375 -49.9375 71.410156 -48.015625 68.296875 -45.828125 C 65.179688 -43.640625 62.132812 -41.484375 59.15625 -39.359375 C 56.175781 -37.242188 53.753906 -35.59375 51.890625 -34.40625 C 49.503906 -32.675781 47.1875 -30.984375 44.9375 -29.328125 C 42.6875 -27.671875 40.429688 -26.046875 38.171875 -24.453125 C 36.984375 -23.523438 35.59375 -22.863281 34 -22.46875 C 31.476562 -21.675781 29.691406 -22.535156 28.640625 -25.046875 C 28.109375 -26.242188 27.707031 -27.304688 27.4375 -28.234375 C 27.175781 -29.160156 27.242188 -30.753906 27.640625 -33.015625 C 27.898438 -35.398438 28.492188 -37.6875 29.421875 -39.875 C 30.359375 -42.0625 30.691406 -43.15625 30.421875 -43.15625 C 29.890625 -43.15625 28.726562 -42.359375 26.9375 -40.765625 C 25.15625 -39.171875 23.132812 -37.3125 20.875 -35.1875 C 18.625 -33.070312 16.4375 -31.019531 14.3125 -29.03125 C 12.195312 -27.039062 10.609375 -25.515625 9.546875 -24.453125 C 8.878906 -23.921875 8.113281 -23.421875 7.25 -22.953125 C 6.394531 -22.492188 5.632812 -22 4.96875 -21.46875 Z M 5.375 -32.609375 C 6.164062 -32.742188 6.894531 -33.078125 7.5625 -33.609375 C 8.082031 -33.734375 8.546875 -34.128906 8.953125 -34.796875 C 10.804688 -36.390625 12.625 -38.015625 14.40625 -39.671875 C 16.195312 -41.328125 18.023438 -42.953125 19.890625 -44.546875 C 22.929688 -46.929688 25.742188 -49.476562 28.328125 -52.1875 C 30.921875 -54.90625 33.472656 -57.660156 35.984375 -60.453125 C 38.109375 -62.703125 40.03125 -65.019531 41.75 -67.40625 C 42.8125 -68.863281 43.441406 -70.285156 43.640625 -71.671875 C 43.835938 -73.066406 43.539062 -74.097656 42.75 -74.765625 C 41.5625 -75.691406 40.398438 -75.957031 39.265625 -75.5625 C 38.140625 -75.164062 37.046875 -74.632812 35.984375 -73.96875 C 33.867188 -72.644531 31.847656 -71.21875 29.921875 -69.6875 C 28.003906 -68.164062 26.117188 -66.609375 24.265625 -65.015625 C 21.347656 -62.503906 18.660156 -59.65625 16.203125 -56.46875 C 13.753906 -53.289062 11.398438 -50.046875 9.140625 -46.734375 C 7.816406 -45.003906 6.820312 -43.078125 6.15625 -40.953125 C 5.5 -38.835938 5.035156 -36.585938 4.765625 -34.203125 Z M 5.375 -32.609375 " />
      </g>
    </g>
  </g>
  <g fill="#545454" fill-opacity="1">
    <g transform="translate(181.141574, 258.904433)">
      <g>
        <path d="M 37.578125 -91.859375 C 36.390625 -90.140625 35.128906 -90.140625 33.796875 -91.859375 C 32.867188 -92.921875 32.40625 -94.015625 32.40625 -95.140625 C 32.40625 -96.273438 32.472656 -97.4375 32.609375 -98.625 C 32.742188 -99.15625 32.910156 -99.617188 33.109375 -100.015625 C 33.304688 -100.410156 33.472656 -100.8125 33.609375 -101.21875 C 35.191406 -103.46875 36.742188 -105.785156 38.265625 -108.171875 C 39.796875 -110.554688 41.359375 -112.875 42.953125 -115.125 C 43.878906 -116.320312 45.070312 -117.253906 46.53125 -117.921875 C 47.71875 -118.578125 48.742188 -118.835938 49.609375 -118.703125 C 50.472656 -118.578125 51.4375 -118.050781 52.5 -117.125 C 55.144531 -114.738281 56.367188 -113.015625 56.171875 -111.953125 C 55.972656 -110.890625 54.347656 -109.5625 51.296875 -107.96875 C 48.515625 -106.644531 46.128906 -104.457031 44.140625 -101.40625 Z M 4.765625 -22.46875 C 1.722656 -21.539062 -0.722656 -22.070312 -2.578125 -24.0625 C -4.441406 -26.050781 -5.535156 -28.601562 -5.859375 -31.71875 C -6.191406 -34.832031 -5.765625 -37.515625 -4.578125 -39.765625 C -2.585938 -43.484375 -0.46875 -47.160156 1.78125 -50.796875 C 4.039062 -54.441406 6.429688 -57.925781 8.953125 -61.25 C 9.878906 -62.570312 11.132812 -64.523438 12.71875 -67.109375 C 14.3125 -69.691406 16.035156 -72.078125 17.890625 -74.265625 C 19.753906 -76.453125 21.546875 -77.613281 23.265625 -77.75 C 24.328125 -78.007812 25.914062 -77.90625 28.03125 -77.4375 C 30.15625 -76.976562 31.21875 -76.15625 31.21875 -74.96875 C 31.21875 -74.4375 30.421875 -73.640625 28.828125 -72.578125 C 27.242188 -71.515625 26.25 -70.785156 25.84375 -70.390625 C 23.457031 -68.003906 21.238281 -65.382812 19.1875 -62.53125 C 17.132812 -59.6875 15.179688 -56.867188 13.328125 -54.078125 C 12.265625 -52.222656 11.101562 -50.398438 9.84375 -48.609375 C 8.582031 -46.828125 7.421875 -45.007812 6.359375 -43.15625 C 5.828125 -42.21875 5.328125 -41.21875 4.859375 -40.15625 C 4.398438 -39.101562 4.039062 -38.046875 3.78125 -36.984375 C 3.644531 -36.054688 3.609375 -34.992188 3.671875 -33.796875 C 3.742188 -32.609375 4.578125 -32.476562 6.171875 -33.40625 C 8.421875 -34.863281 10.671875 -36.285156 12.921875 -37.671875 C 15.179688 -39.066406 17.367188 -40.492188 19.484375 -41.953125 C 21.734375 -43.410156 24.445312 -45.164062 27.625 -47.21875 C 30.8125 -49.28125 33.960938 -51.335938 37.078125 -53.390625 C 40.191406 -55.441406 42.8125 -57.160156 44.9375 -58.546875 C 47.0625 -59.941406 48.1875 -60.707031 48.3125 -60.84375 C 48.976562 -61.238281 49.804688 -61.703125 50.796875 -62.234375 C 51.796875 -62.765625 52.492188 -62.898438 52.890625 -62.640625 C 54.347656 -61.835938 54.742188 -60.507812 54.078125 -58.65625 C 53.421875 -56.800781 52.363281 -55.34375 50.90625 -54.28125 C 50.632812 -54.144531 49.40625 -53.25 47.21875 -51.59375 C 45.03125 -49.9375 42.347656 -48.015625 39.171875 -45.828125 C 35.992188 -43.640625 32.910156 -41.484375 29.921875 -39.359375 C 26.941406 -37.242188 24.523438 -35.59375 22.671875 -34.40625 C 20.410156 -32.675781 18.117188 -30.984375 15.796875 -29.328125 C 13.484375 -27.671875 11.203125 -26.046875 8.953125 -24.453125 C 8.421875 -23.921875 7.753906 -23.519531 6.953125 -23.25 C 6.160156 -22.988281 5.429688 -22.726562 4.765625 -22.46875 Z M 4.765625 -22.46875 " />
      </g>
    </g>
  </g>
  <g fill="#545454" fill-opacity="1">
    <g transform="translate(221.307589, 258.904433)">
      <g>
        <path d="M 36.59375 -20.484375 C 35.53125 -20.742188 34.734375 -21.535156 34.203125 -22.859375 C 33.671875 -24.191406 33.367188 -25.648438 33.296875 -27.234375 C 33.234375 -28.828125 33.398438 -29.957031 33.796875 -30.625 C 36.847656 -36.1875 39.035156 -40.359375 40.359375 -43.140625 C 41.691406 -45.929688 42.722656 -48.117188 43.453125 -49.703125 C 44.179688 -51.296875 45.039062 -53.019531 46.03125 -54.875 C 47.03125 -56.738281 48.585938 -59.523438 50.703125 -63.234375 C 51.234375 -64.023438 51.132812 -64.648438 50.40625 -65.109375 C 49.675781 -65.578125 48.71875 -65.613281 47.53125 -65.21875 C 43.019531 -62.300781 38.273438 -59.21875 33.296875 -55.96875 C 28.328125 -52.726562 23.722656 -49.445312 19.484375 -46.125 C 17.765625 -44.800781 16.007812 -43.507812 14.21875 -42.25 C 12.425781 -40.988281 10.800781 -39.429688 9.34375 -37.578125 C 8.019531 -35.722656 6.828125 -33.535156 5.765625 -31.015625 C 4.703125 -28.492188 3.242188 -26.503906 1.390625 -25.046875 C -0.0664062 -23.992188 -1.585938 -23.726562 -3.171875 -24.25 C -4.765625 -24.78125 -5.695312 -25.3125 -5.96875 -25.84375 C -6.894531 -27.300781 -7.222656 -28.988281 -6.953125 -30.90625 C -6.691406 -32.832031 -6.226562 -34.660156 -5.5625 -36.390625 C -4.632812 -38.378906 -3.570312 -40.300781 -2.375 -42.15625 C -1.1875 -44.007812 -0.128906 -45.863281 0.796875 -47.71875 C 2.390625 -50.90625 4.28125 -53.921875 6.46875 -56.765625 C 8.65625 -59.617188 10.804688 -62.503906 12.921875 -65.421875 C 15.179688 -68.335938 17.269531 -71.382812 19.1875 -74.5625 C 21.113281 -77.75 23.003906 -80.929688 24.859375 -84.109375 C 25.921875 -85.171875 26.878906 -85.703125 27.734375 -85.703125 C 28.597656 -85.703125 29.691406 -85.238281 31.015625 -84.3125 C 32.472656 -83.382812 33.035156 -82.09375 32.703125 -80.4375 C 32.378906 -78.78125 31.617188 -77.085938 30.421875 -75.359375 C 28.296875 -72.441406 26.238281 -69.492188 24.25 -66.515625 C 22.269531 -63.535156 20.21875 -60.519531 18.09375 -57.46875 C 17.164062 -56.144531 16.800781 -55.316406 17 -54.984375 C 17.195312 -54.648438 17.296875 -54.019531 17.296875 -53.09375 C 17.960938 -53.09375 18.363281 -53.160156 18.5 -53.296875 C 19.6875 -54.085938 20.875 -54.878906 22.0625 -55.671875 C 23.257812 -56.472656 24.390625 -57.335938 25.453125 -58.265625 C 29.296875 -61.441406 33.269531 -64.351562 37.375 -67 C 41.488281 -69.65625 45.597656 -72.242188 49.703125 -74.765625 C 50.765625 -75.429688 51.992188 -76.128906 53.390625 -76.859375 C 54.785156 -77.585938 56.078125 -78.148438 57.265625 -78.546875 C 58.722656 -78.941406 60.347656 -78.972656 62.140625 -78.640625 C 63.929688 -78.304688 65.488281 -78.007812 66.8125 -77.75 C 67.070312 -77.613281 67.398438 -77.476562 67.796875 -77.34375 C 68.203125 -77.21875 68.46875 -76.957031 68.59375 -76.5625 C 68.59375 -76.289062 68.53125 -76.023438 68.40625 -75.765625 C 68.269531 -75.234375 68.066406 -74.765625 67.796875 -74.359375 C 67.535156 -73.960938 67.273438 -73.566406 67.015625 -73.171875 C 66.210938 -71.984375 65.378906 -70.789062 64.515625 -69.59375 C 63.660156 -68.40625 62.898438 -67.144531 62.234375 -65.8125 C 61.703125 -65.019531 61.269531 -64.09375 60.9375 -63.03125 C 60.613281 -61.96875 60.1875 -60.910156 59.65625 -59.859375 L 55.28125 -51.890625 L 51.109375 -44.546875 C 50.703125 -43.617188 50.265625 -42.722656 49.796875 -41.859375 C 49.335938 -40.992188 48.910156 -40.097656 48.515625 -39.171875 C 47.984375 -37.847656 48.28125 -37.25 49.40625 -37.375 C 50.539062 -37.507812 51.367188 -37.710938 51.890625 -37.984375 C 58.253906 -41.160156 64.285156 -45 69.984375 -49.5 C 75.691406 -54.007812 81.660156 -57.925781 87.890625 -61.25 C 88.679688 -61.644531 89.539062 -62.140625 90.46875 -62.734375 C 91.394531 -63.328125 92.0625 -63.492188 92.46875 -63.234375 C 93.925781 -62.304688 94.320312 -60.910156 93.65625 -59.046875 C 92.988281 -57.191406 91.925781 -55.738281 90.46875 -54.6875 C 90.207031 -54.550781 88.984375 -53.65625 86.796875 -52 C 84.609375 -50.34375 81.957031 -48.421875 78.84375 -46.234375 C 75.726562 -44.046875 72.675781 -41.890625 69.6875 -39.765625 C 66.707031 -37.648438 64.289062 -35.992188 62.4375 -34.796875 C 58.195312 -31.878906 54.1875 -28.992188 50.40625 -26.140625 C 46.625 -23.296875 42.019531 -21.410156 36.59375 -20.484375 Z M 36.59375 -20.484375 " />
      </g>
    </g>
  </g>
  <g fill="#545454" fill-opacity="1">
    <g transform="translate(299.253512, 258.904433)">
      <g>
        <path d="M 4.171875 -22.46875 C 2.453125 -21.9375 0.734375 -22.265625 -0.984375 -23.453125 C -2.710938 -24.648438 -4.109375 -25.910156 -5.171875 -27.234375 C -5.429688 -27.640625 -5.695312 -28.238281 -5.96875 -29.03125 C -5.96875 -29.820312 -5.898438 -30.484375 -5.765625 -31.015625 C -4.441406 -36.191406 -2.519531 -41.195312 0 -46.03125 C 2.519531 -50.875 5.171875 -55.546875 7.953125 -60.046875 C 9.804688 -63.097656 11.660156 -66.046875 13.515625 -68.890625 C 15.378906 -71.742188 17.238281 -74.628906 19.09375 -77.546875 C 19.488281 -78.210938 20.414062 -79.539062 21.875 -81.53125 C 23.332031 -83.519531 24.753906 -85.570312 26.140625 -87.6875 C 27.535156 -89.8125 28.429688 -91.40625 28.828125 -92.46875 C 28.960938 -92.726562 29.03125 -93.125 29.03125 -93.65625 C 28.769531 -94.582031 28.171875 -94.914062 27.234375 -94.65625 C 26.304688 -94.519531 25.507812 -94.316406 24.84375 -94.046875 C 24.1875 -93.785156 23.394531 -93.585938 22.46875 -93.453125 C 21.539062 -93.453125 20.28125 -93.316406 18.6875 -93.046875 C 17.101562 -92.785156 15.84375 -92.789062 14.90625 -93.0625 C 13.582031 -93.59375 13.1875 -94.785156 13.71875 -96.640625 C 14.25 -98.492188 15.242188 -99.488281 16.703125 -99.625 C 18.554688 -99.882812 20.3125 -100.144531 21.96875 -100.40625 C 23.625 -100.675781 25.316406 -100.878906 27.046875 -101.015625 C 28.765625 -101.273438 30.484375 -101.835938 32.203125 -102.703125 C 33.929688 -103.566406 35.457031 -104.460938 36.78125 -105.390625 C 37.445312 -106.046875 38.046875 -106.707031 38.578125 -107.375 C 39.109375 -108.039062 39.570312 -108.703125 39.96875 -109.359375 C 41.289062 -111.484375 42.21875 -113.007812 42.75 -113.9375 C 43.28125 -114.863281 43.742188 -115.625 44.140625 -116.21875 C 44.535156 -116.820312 45 -117.648438 45.53125 -118.703125 C 46.195312 -120.296875 47.0625 -121.425781 48.125 -122.09375 C 49.175781 -122.75 50.234375 -122.710938 51.296875 -121.984375 C 52.359375 -121.253906 53.222656 -120.5625 53.890625 -119.90625 C 54.679688 -118.84375 54.976562 -117.75 54.78125 -116.625 C 54.582031 -115.5 54.148438 -114.40625 53.484375 -113.34375 C 52.953125 -112.539062 52.222656 -111.578125 51.296875 -110.453125 C 50.367188 -109.328125 49.835938 -108.234375 49.703125 -107.171875 C 49.578125 -106.117188 50.375 -105.257812 52.09375 -104.59375 C 52.625 -104.457031 53.117188 -104.390625 53.578125 -104.390625 C 54.046875 -104.390625 54.546875 -104.390625 55.078125 -104.390625 C 57.066406 -104.390625 59.054688 -104.191406 61.046875 -103.796875 C 63.035156 -103.398438 64.757812 -102.539062 66.21875 -101.21875 C 66.476562 -100.945312 66.609375 -100.679688 66.609375 -100.421875 C 66.609375 -100.148438 66.539062 -99.945312 66.40625 -99.8125 L 65.8125 -98.828125 L 64.828125 -97.03125 C 64.160156 -95.84375 63.429688 -95.113281 62.640625 -94.84375 C 62.367188 -94.71875 62.066406 -94.6875 61.734375 -94.75 C 61.410156 -94.8125 61.113281 -94.84375 60.84375 -94.84375 C 58.726562 -95.113281 56.640625 -95.28125 54.578125 -95.34375 C 52.523438 -95.40625 50.4375 -95.375 48.3125 -95.25 C 47.65625 -95.25 46.992188 -95.25 46.328125 -95.25 C 45.671875 -95.25 45.007812 -95.113281 44.34375 -94.84375 C 42.75 -94.3125 41.519531 -93.484375 40.65625 -92.359375 C 39.800781 -91.234375 38.84375 -90.140625 37.78125 -89.078125 C 36.71875 -87.890625 35.6875 -86.726562 34.6875 -85.59375 C 33.695312 -84.46875 32.738281 -83.242188 31.8125 -81.921875 C 30.75 -80.328125 29.71875 -78.703125 28.71875 -77.046875 C 27.726562 -75.390625 26.707031 -73.703125 25.65625 -71.984375 C 24.726562 -70.523438 23.863281 -69 23.0625 -67.40625 C 22.269531 -65.8125 21.34375 -64.285156 20.28125 -62.828125 C 17.632812 -58.722656 15.378906 -54.382812 13.515625 -49.8125 C 11.660156 -45.238281 9.609375 -40.765625 7.359375 -36.390625 C 7.222656 -36.253906 7.15625 -36.054688 7.15625 -35.796875 C 7.15625 -35.523438 7.289062 -35.390625 7.5625 -35.390625 C 8.082031 -35.265625 8.578125 -35.300781 9.046875 -35.5 C 9.515625 -35.695312 9.945312 -35.925781 10.34375 -36.1875 C 16.300781 -40.425781 22.425781 -44.597656 28.71875 -48.703125 C 35.019531 -52.816406 41.289062 -56.796875 47.53125 -60.640625 L 47.71875 -60.84375 C 48.382812 -61.238281 49.179688 -61.703125 50.109375 -62.234375 C 51.035156 -62.765625 51.695312 -62.898438 52.09375 -62.640625 C 53.550781 -61.835938 53.945312 -60.507812 53.28125 -58.65625 C 52.625 -56.800781 51.566406 -55.34375 50.109375 -54.28125 C 49.972656 -54.144531 48.78125 -53.25 46.53125 -51.59375 C 44.28125 -49.9375 41.59375 -48.015625 38.46875 -45.828125 C 35.351562 -43.640625 32.304688 -41.484375 29.328125 -39.359375 C 26.347656 -37.242188 23.929688 -35.59375 22.078125 -34.40625 C 19.691406 -32.675781 17.367188 -30.984375 15.109375 -29.328125 C 12.859375 -27.671875 10.601562 -26.046875 8.34375 -24.453125 C 7.15625 -23.523438 5.765625 -22.863281 4.171875 -22.46875 Z M 4.171875 -22.46875 " />
      </g>
    </g>
  </g>
</svg>